%TF.GenerationSoftware,KiCad,Pcbnew,10.0.3*%
%TF.CreationDate,2026-06-28T19:21:50+05:30*%
%TF.ProjectId,ESP32-DevKit-Custom,45535033-322d-4446-9576-4b69742d4375,Version7*%
%TF.SameCoordinates,Original*%
%TF.FileFunction,Copper,L1,Top*%
%TF.FilePolarity,Positive*%
%FSLAX46Y46*%
G04 Gerber Fmt 4.6, Leading zero omitted, Abs format (unit mm)*
G04 Created by KiCad (PCBNEW 10.0.3) date 2026-06-28 19:21:50*
%MOMM*%
%LPD*%
G01*
G04 APERTURE LIST*
G04 Aperture macros list*
%AMRoundRect*
0 Rectangle with rounded corners*
0 $1 Rounding radius*
0 $2 $3 $4 $5 $6 $7 $8 $9 X,Y pos of 4 corners*
0 Add a 4 corners polygon primitive as box body*
4,1,4,$2,$3,$4,$5,$6,$7,$8,$9,$2,$3,0*
0 Add four circle primitives for the rounded corners*
1,1,$1+$1,$2,$3*
1,1,$1+$1,$4,$5*
1,1,$1+$1,$6,$7*
1,1,$1+$1,$8,$9*
0 Add four rect primitives between the rounded corners*
20,1,$1+$1,$2,$3,$4,$5,0*
20,1,$1+$1,$4,$5,$6,$7,0*
20,1,$1+$1,$6,$7,$8,$9,0*
20,1,$1+$1,$8,$9,$2,$3,0*%
G04 Aperture macros list end*
%TA.AperFunction,ComponentPad*%
%ADD10C,0.300000*%
%TD*%
%TA.AperFunction,SMDPad,CuDef*%
%ADD11R,1.330000X1.330000*%
%TD*%
%TA.AperFunction,SMDPad,CuDef*%
%ADD12R,2.000000X0.900000*%
%TD*%
%TA.AperFunction,SMDPad,CuDef*%
%ADD13R,0.900000X2.000000*%
%TD*%
%TA.AperFunction,SMDPad,CuDef*%
%ADD14RoundRect,0.075000X-0.125000X-0.075000X0.125000X-0.075000X0.125000X0.075000X-0.125000X0.075000X0*%
%TD*%
%TA.AperFunction,SMDPad,CuDef*%
%ADD15RoundRect,0.218750X-0.218750X-0.256250X0.218750X-0.256250X0.218750X0.256250X-0.218750X0.256250X0*%
%TD*%
%TA.AperFunction,SMDPad,CuDef*%
%ADD16R,1.550000X1.300000*%
%TD*%
%TA.AperFunction,SMDPad,CuDef*%
%ADD17R,0.900000X0.800000*%
%TD*%
%TA.AperFunction,SMDPad,CuDef*%
%ADD18RoundRect,0.150000X0.150000X0.200000X-0.150000X0.200000X-0.150000X-0.200000X0.150000X-0.200000X0*%
%TD*%
%TA.AperFunction,SMDPad,CuDef*%
%ADD19RoundRect,0.112500X-0.187500X-0.112500X0.187500X-0.112500X0.187500X0.112500X-0.187500X0.112500X0*%
%TD*%
%TA.AperFunction,ComponentPad*%
%ADD20C,1.700000*%
%TD*%
%TA.AperFunction,ComponentPad*%
%ADD21R,1.700000X1.700000*%
%TD*%
%TA.AperFunction,SMDPad,CuDef*%
%ADD22RoundRect,0.100000X-0.100000X-0.575000X0.100000X-0.575000X0.100000X0.575000X-0.100000X0.575000X0*%
%TD*%
%TA.AperFunction,ComponentPad*%
%ADD23O,1.000000X1.900000*%
%TD*%
%TA.AperFunction,SMDPad,CuDef*%
%ADD24R,0.875000X1.900000*%
%TD*%
%TA.AperFunction,ComponentPad*%
%ADD25O,1.050000X1.250000*%
%TD*%
%TA.AperFunction,SMDPad,CuDef*%
%ADD26RoundRect,0.250000X-1.200000X-0.700000X1.200000X-0.700000X1.200000X0.700000X-1.200000X0.700000X0*%
%TD*%
%TA.AperFunction,ViaPad*%
%ADD27C,0.600000*%
%TD*%
%TA.AperFunction,Conductor*%
%ADD28C,0.200000*%
%TD*%
G04 APERTURE END LIST*
D10*
%TO.P,MOD1,39_21,GND_39_21*%
%TO.N,GND*%
X217477500Y-68195000D03*
%TO.P,MOD1,39_20,GND_39_20*%
X215642500Y-68195000D03*
%TO.P,MOD1,39_19,GND_39_19*%
X218395000Y-67277500D03*
%TO.P,MOD1,39_18,GND_39_18*%
X216560000Y-67277500D03*
%TO.P,MOD1,39_17,GND_39_17*%
X214725000Y-67277500D03*
%TO.P,MOD1,39_16,GND_39_16*%
X217477500Y-66360000D03*
%TO.P,MOD1,39_15,GND_39_15*%
X215642500Y-66360000D03*
%TO.P,MOD1,39_14,GND_39_14*%
X218395000Y-65442500D03*
%TO.P,MOD1,39_13,GND_39_13*%
X216560000Y-65442500D03*
%TO.P,MOD1,39_12,GND_39_12*%
X214725000Y-65442500D03*
%TO.P,MOD1,39_11,GND_39_11*%
X217477500Y-64525000D03*
%TO.P,MOD1,39_10,GND_39_10*%
X215642500Y-64525000D03*
D11*
%TO.P,MOD1,39_9,GND_39_9*%
X218395000Y-68195000D03*
%TO.P,MOD1,39_8,GND_39_8*%
X216560000Y-68195000D03*
%TO.P,MOD1,39_7,GND_39_7*%
X214725000Y-68195000D03*
%TO.P,MOD1,39_6,GND_39_6*%
X218395000Y-66360000D03*
%TO.P,MOD1,39_5,GND_39_5*%
X216560000Y-66360000D03*
%TO.P,MOD1,39_4,GND_39_4*%
X214725000Y-66360000D03*
%TO.P,MOD1,39_3,GND_39_3*%
X218395000Y-64525000D03*
%TO.P,MOD1,39_2,GND_39_2*%
X216560000Y-64525000D03*
%TO.P,MOD1,39_1,GND_39_1*%
X214725000Y-64525000D03*
D12*
%TO.P,MOD1,38,GND_38*%
X226060000Y-58860000D03*
%TO.P,MOD1,37,IO23_37*%
%TO.N,/IO23*%
X226060000Y-60130000D03*
%TO.P,MOD1,36,IO22_36*%
%TO.N,/IO22*%
X226060000Y-61400000D03*
%TO.P,MOD1,35,TXD0_35*%
%TO.N,/TXD0*%
X226060000Y-62670000D03*
%TO.P,MOD1,34,RXD0_34*%
%TO.N,/RXD0*%
X226060000Y-63940000D03*
%TO.P,MOD1,33,IO21_33*%
%TO.N,/IO21*%
X226060000Y-65210000D03*
%TO.P,MOD1,32*%
%TO.N,N/C*%
X226060000Y-66480000D03*
%TO.P,MOD1,31,IO19_31*%
%TO.N,/IO19*%
X226060000Y-67750000D03*
%TO.P,MOD1,30,IO18_30*%
%TO.N,/IO18*%
X226060000Y-69020000D03*
%TO.P,MOD1,29,IO5_29*%
%TO.N,/IO5*%
X226060000Y-70290000D03*
%TO.P,MOD1,28,IO17_28*%
%TO.N,/IO17*%
X226060000Y-71560000D03*
%TO.P,MOD1,27,IO16_27*%
%TO.N,/IO16*%
X226060000Y-72830000D03*
%TO.P,MOD1,26,IO4_26*%
%TO.N,/IO4*%
X226060000Y-74100000D03*
%TO.P,MOD1,25,IO0_25*%
%TO.N,/IO0*%
X226060000Y-75370000D03*
D13*
%TO.P,MOD1,24,IO2_24*%
%TO.N,/IO2*%
X223275000Y-76370000D03*
%TO.P,MOD1,23,IO15_23*%
%TO.N,/IO15*%
X222005000Y-76370000D03*
%TO.P,MOD1,22,SDI/SD1_22*%
%TO.N,/SD1*%
X220735000Y-76370000D03*
%TO.P,MOD1,21,SDO/SD0_21*%
%TO.N,/SD0*%
X219465000Y-76370000D03*
%TO.P,MOD1,20,SCK/CLK_20*%
%TO.N,/CLK*%
X218195000Y-76370000D03*
%TO.P,MOD1,19,SCS/CMD_19*%
%TO.N,/CMD*%
X216925000Y-76370000D03*
%TO.P,MOD1,18,SWP/SD3_18*%
%TO.N,/SD3*%
X215655000Y-76370000D03*
%TO.P,MOD1,17,SHD/SD2_17*%
%TO.N,/SD2*%
X214385000Y-76370000D03*
%TO.P,MOD1,16,IO13_16*%
%TO.N,/IO13*%
X213115000Y-76370000D03*
%TO.P,MOD1,15,GND_15*%
%TO.N,GND*%
X211845000Y-76370000D03*
D12*
%TO.P,MOD1,14,IO12_14*%
%TO.N,/IO12*%
X209060000Y-75370000D03*
%TO.P,MOD1,13,IO14_13*%
%TO.N,/IO14*%
X209060000Y-74100000D03*
%TO.P,MOD1,12,IO27_12*%
%TO.N,/IO27*%
X209060000Y-72830000D03*
%TO.P,MOD1,11,IO26_11*%
%TO.N,/IO26*%
X209060000Y-71560000D03*
%TO.P,MOD1,10,IO25_10*%
%TO.N,/IO25*%
X209060000Y-70290000D03*
%TO.P,MOD1,9,IO33_9*%
%TO.N,/IO33*%
X209060000Y-69020000D03*
%TO.P,MOD1,8,IO32_8*%
%TO.N,/IO32*%
X209060000Y-67750000D03*
%TO.P,MOD1,7,IO35_7*%
%TO.N,/IO35*%
X209060000Y-66480000D03*
%TO.P,MOD1,6,IO34_6*%
%TO.N,/IO34*%
X209060000Y-65210000D03*
%TO.P,MOD1,5,SENSOR_VN_5*%
%TO.N,/SENSOR_VN*%
X209060000Y-63940000D03*
%TO.P,MOD1,4,SENSOR_VP_4*%
%TO.N,/SENSOR_VP*%
X209060000Y-62670000D03*
%TO.P,MOD1,3,EN_3*%
%TO.N,/EN*%
X209060000Y-61400000D03*
%TO.P,MOD1,2,3V3_2*%
%TO.N,Net-(MOD1-3V3)*%
X209060000Y-60130000D03*
%TO.P,MOD1,1,GND_1*%
%TO.N,GND*%
X209060000Y-58860000D03*
%TD*%
D14*
%TO.P,C9,2*%
%TO.N,GND*%
X216970000Y-82580000D03*
%TO.P,C9,1*%
%TO.N,/EN*%
X216470000Y-82580000D03*
%TD*%
%TO.P,C14,1*%
%TO.N,GND*%
X227020000Y-88740000D03*
%TO.P,C14,2*%
%TO.N,/EN*%
X227520000Y-88740000D03*
%TD*%
%TO.P,C15,1*%
%TO.N,GND*%
X208685000Y-88920000D03*
%TO.P,C15,2*%
%TO.N,/IO0*%
X209185000Y-88920000D03*
%TD*%
%TO.P,C19,2*%
%TO.N,GND*%
X213880000Y-85360000D03*
%TO.P,C19,1*%
%TO.N,/VDD33*%
X213380000Y-85360000D03*
%TD*%
%TO.P,C20,2*%
%TO.N,GND*%
X213720000Y-82620000D03*
%TO.P,C20,1*%
%TO.N,/VDD33*%
X213220000Y-82620000D03*
%TD*%
%TO.P,C21,2*%
%TO.N,GND*%
X209595000Y-85370000D03*
%TO.P,C21,1*%
%TO.N,Net-(MOD1-3V3)*%
X209095000Y-85370000D03*
%TD*%
%TO.P,C22,2*%
%TO.N,GND*%
X209585000Y-82700000D03*
%TO.P,C22,1*%
%TO.N,Net-(MOD1-3V3)*%
X209085000Y-82700000D03*
%TD*%
%TO.P,R2,2*%
%TO.N,Net-(D1-A)*%
X218370000Y-85370000D03*
%TO.P,R2,1*%
%TO.N,/EXT_5V*%
X217870000Y-85370000D03*
%TD*%
%TO.P,R11,2*%
%TO.N,/EN*%
X226070000Y-85370000D03*
%TO.P,R11,1*%
%TO.N,/VDD33*%
X225570000Y-85370000D03*
%TD*%
%TO.P,R17,2*%
%TO.N,/RXD*%
X222870000Y-82590000D03*
%TO.P,R17,1*%
%TO.N,/TXD0*%
X222370000Y-82590000D03*
%TD*%
%TO.P,R18,2*%
%TO.N,/TXD*%
X225920000Y-82560000D03*
%TO.P,R18,1*%
%TO.N,/RXD0*%
X225420000Y-82560000D03*
%TD*%
%TO.P,R21,2*%
%TO.N,Net-(Q1-Pad1)*%
X210220000Y-105670000D03*
%TO.P,R21,1*%
%TO.N,/DTR*%
X209720000Y-105670000D03*
%TD*%
%TO.P,R22,1*%
%TO.N,/RTS*%
X225390000Y-105620000D03*
%TO.P,R22,2*%
%TO.N,Net-(Q2-Pad1)*%
X225890000Y-105620000D03*
%TD*%
%TO.P,R23,2*%
%TO.N,Net-(U1-~{SUSPENDB})*%
X222500000Y-85370000D03*
%TO.P,R23,1*%
%TO.N,GND*%
X222000000Y-85370000D03*
%TD*%
%TO.P,R24,2*%
%TO.N,Net-(U1-~{RST})*%
X220010000Y-82600000D03*
%TO.P,R24,1*%
%TO.N,/VDD33*%
X219510000Y-82600000D03*
%TD*%
%TO.P,R25,2*%
%TO.N,/VBUS*%
X216265000Y-87870000D03*
%TO.P,R25,1*%
%TO.N,Net-(U1-VBUS)*%
X215765000Y-87870000D03*
%TD*%
%TO.P,R26,2*%
%TO.N,Net-(U1-VBUS)*%
X219225000Y-87870000D03*
%TO.P,R26,1*%
%TO.N,GND*%
X218725000Y-87870000D03*
%TD*%
D15*
%TO.P,D1,2,A_2*%
%TO.N,Net-(D1-A)*%
X218407500Y-79730000D03*
%TO.P,D1,1,K_1*%
%TO.N,GND*%
X216832500Y-79730000D03*
%TD*%
D16*
%TO.P,SW2,2,2_2*%
%TO.N,/EN*%
X226965000Y-95580000D03*
X219015000Y-95580000D03*
%TO.P,SW2,1,1_1*%
%TO.N,GND*%
X226965000Y-91080000D03*
X219015000Y-91080000D03*
%TD*%
%TO.P,SW1,2,2_2*%
%TO.N,/IO0*%
X216005000Y-95550000D03*
X208055000Y-95550000D03*
%TO.P,SW1,1,1_1*%
%TO.N,GND*%
X216005000Y-91050000D03*
X208055000Y-91050000D03*
%TD*%
D17*
%TO.P,Q1,1*%
%TO.N,Net-(Q1-Pad1)*%
X208790000Y-101210000D03*
%TO.P,Q1,2*%
%TO.N,/RTS*%
X208790000Y-103110000D03*
%TO.P,Q1,3*%
%TO.N,/EN*%
X210790000Y-102160000D03*
%TD*%
%TO.P,Q2,1*%
%TO.N,Net-(Q2-Pad1)*%
X224247500Y-101270000D03*
%TO.P,Q2,2*%
%TO.N,/IO0*%
X224247500Y-103170000D03*
%TO.P,Q2,3*%
%TO.N,/DTR*%
X226247500Y-102220000D03*
%TD*%
D18*
%TO.P,D6,2,A2_2*%
%TO.N,/VBUS*%
X209980000Y-79830000D03*
%TO.P,D6,1,A1_1*%
%TO.N,GND*%
X208580000Y-79830000D03*
%TD*%
%TO.P,D5,2,A2_2*%
%TO.N,/USB_DP*%
X214090000Y-79710000D03*
%TO.P,D5,1,A1_1*%
%TO.N,GND*%
X212690000Y-79710000D03*
%TD*%
%TO.P,D4,2,A2_2*%
%TO.N,/USB_DN*%
X222502500Y-79670000D03*
%TO.P,D4,1,A1_1*%
%TO.N,GND*%
X221102500Y-79670000D03*
%TD*%
D19*
%TO.P,D3,2,A_2*%
%TO.N,/VBUS*%
X227282500Y-79870000D03*
%TO.P,D3,1,K_1*%
%TO.N,/EXT_5V*%
X225182500Y-79870000D03*
%TD*%
D20*
%TO.P,J2,19,Pin_19_19*%
%TO.N,/EXT_5V*%
X204300000Y-105520000D03*
%TO.P,J2,18,Pin_18_18*%
%TO.N,/CMD*%
X204300000Y-102980000D03*
%TO.P,J2,17,Pin_17_17*%
%TO.N,/SD3*%
X204300000Y-100440000D03*
%TO.P,J2,16,Pin_16_16*%
%TO.N,/SD2*%
X204300000Y-97900000D03*
%TO.P,J2,15,Pin_15_15*%
%TO.N,/IO13*%
X204300000Y-95360000D03*
%TO.P,J2,14,Pin_14_14*%
%TO.N,GND*%
X204300000Y-92820000D03*
%TO.P,J2,13,Pin_13_13*%
%TO.N,/IO12*%
X204300000Y-90280000D03*
%TO.P,J2,12,Pin_12_12*%
%TO.N,/IO14*%
X204300000Y-87740000D03*
%TO.P,J2,11,Pin_11_11*%
%TO.N,/IO27*%
X204300000Y-85200000D03*
%TO.P,J2,10,Pin_10_10*%
%TO.N,/IO26*%
X204300000Y-82660000D03*
%TO.P,J2,9,Pin_9_9*%
%TO.N,/IO25*%
X204300000Y-80120000D03*
%TO.P,J2,8,Pin_8_8*%
%TO.N,/IO33*%
X204300000Y-77580000D03*
%TO.P,J2,7,Pin_7_7*%
%TO.N,/IO32*%
X204300000Y-75040000D03*
%TO.P,J2,6,Pin_6_6*%
%TO.N,/IO35*%
X204300000Y-72500000D03*
%TO.P,J2,5,Pin_5_5*%
%TO.N,/IO34*%
X204300000Y-69960000D03*
%TO.P,J2,4,Pin_4_4*%
%TO.N,/SENSOR_VN*%
X204300000Y-67420000D03*
%TO.P,J2,3,Pin_3_3*%
%TO.N,/SENSOR_VP*%
X204300000Y-64880000D03*
%TO.P,J2,2,Pin_2_2*%
%TO.N,/EN*%
X204300000Y-62340000D03*
D21*
%TO.P,J2,1,Pin_1_1*%
%TO.N,/VDD33*%
X204300000Y-59800000D03*
%TD*%
D20*
%TO.P,J3,19,Pin_19_19*%
%TO.N,/CLK*%
X230830000Y-105520000D03*
%TO.P,J3,18,Pin_18_18*%
%TO.N,/SD0*%
X230830000Y-102980000D03*
%TO.P,J3,17,Pin_17_17*%
%TO.N,/SD1*%
X230830000Y-100440000D03*
%TO.P,J3,16,Pin_16_16*%
%TO.N,/IO15*%
X230830000Y-97900000D03*
%TO.P,J3,15,Pin_15_15*%
%TO.N,/IO2*%
X230830000Y-95360000D03*
%TO.P,J3,14,Pin_14_14*%
%TO.N,/IO0*%
X230830000Y-92820000D03*
%TO.P,J3,13,Pin_13_13*%
%TO.N,/IO4*%
X230830000Y-90280000D03*
%TO.P,J3,12,Pin_12_12*%
%TO.N,/IO16*%
X230830000Y-87740000D03*
%TO.P,J3,11,Pin_11_11*%
%TO.N,/IO17*%
X230830000Y-85200000D03*
%TO.P,J3,10,Pin_10_10*%
%TO.N,/IO5*%
X230830000Y-82660000D03*
%TO.P,J3,9,Pin_9_9*%
%TO.N,/IO18*%
X230830000Y-80120000D03*
%TO.P,J3,8,Pin_8_8*%
%TO.N,/IO19*%
X230830000Y-77580000D03*
%TO.P,J3,7,Pin_7_7*%
%TO.N,GND*%
X230830000Y-75040000D03*
%TO.P,J3,6,Pin_6_6*%
%TO.N,/IO21*%
X230830000Y-72500000D03*
%TO.P,J3,5,Pin_5_5*%
%TO.N,/RXD0*%
X230830000Y-69960000D03*
%TO.P,J3,4,Pin_4_4*%
%TO.N,/TXD0*%
X230830000Y-67420000D03*
%TO.P,J3,3,Pin_3_3*%
%TO.N,/IO22*%
X230830000Y-64880000D03*
%TO.P,J3,2,Pin_2_2*%
%TO.N,/IO23*%
X230830000Y-62340000D03*
D21*
%TO.P,J3,1,Pin_1_1*%
%TO.N,GND*%
X230830000Y-59800000D03*
%TD*%
D22*
%TO.P,J1,1,VBUS_1*%
%TO.N,/VBUS*%
X218880000Y-101215000D03*
%TO.P,J1,2,D-_2*%
%TO.N,/USB_DN*%
X218230000Y-101215000D03*
%TO.P,J1,3,D+_3*%
%TO.N,/USB_DP*%
X217580000Y-101215000D03*
%TO.P,J1,4,ID_4*%
%TO.N,unconnected-(J1-ID-Pad4)*%
X216930000Y-101215000D03*
%TO.P,J1,5,GND_5*%
%TO.N,GND*%
X216280000Y-101215000D03*
D23*
%TO.P,J1,SH,Shield_SH*%
X213405000Y-103890000D03*
D24*
X213842500Y-103890000D03*
D25*
X215355000Y-100890000D03*
D26*
X217580000Y-103890000D03*
D25*
X219805000Y-100890000D03*
D24*
X221317500Y-103890000D03*
D23*
X221755000Y-103890000D03*
%TD*%
D27*
%TO.N,Net-(U1-VBUS)*%
X220008000Y-93572900D03*
%TO.N,Net-(U1-~{RST})*%
X219830000Y-87433400D03*
X218686000Y-83287900D03*
%TO.N,Net-(U1-~{SUSPENDB})*%
X222545000Y-86214600D03*
%TO.N,/TXD*%
X225934000Y-84450700D03*
%TO.N,/RXD*%
X220047000Y-85886800D03*
%TO.N,/DTR*%
X211560000Y-105546000D03*
X226248000Y-103023000D03*
X220536000Y-89140000D03*
%TO.N,/RTS*%
X208790000Y-103922000D03*
X224938000Y-106072000D03*
%TO.N,/IO15*%
X222005000Y-77788300D03*
%TO.N,/RXD0*%
X225522000Y-80917900D03*
%TO.N,/IO2*%
X223275000Y-77781600D03*
%TO.N,/SD1*%
X220735000Y-77788300D03*
%TO.N,/SD0*%
X219465000Y-77772100D03*
%TO.N,/TXD0*%
X222718000Y-83142600D03*
%TO.N,/CLK*%
X218195000Y-77772200D03*
%TO.N,/SD3*%
X214773000Y-77777500D03*
%TO.N,/IO13*%
X212729000Y-77781500D03*
%TO.N,/SD2*%
X213959000Y-77782900D03*
%TO.N,/CMD*%
X216925000Y-77775000D03*
%TO.N,/USB_DP*%
X217580000Y-100113000D03*
X215277000Y-79137900D03*
X220816000Y-94195900D03*
%TO.N,/USB_DN*%
X221028000Y-99631300D03*
X222441000Y-81552400D03*
X220916000Y-93005300D03*
%TO.N,/VBUS*%
X218880000Y-100133000D03*
X216625000Y-87352900D03*
X220835000Y-86697100D03*
X210699000Y-79907400D03*
%TO.N,/VDD33*%
X213057000Y-81455100D03*
X220872000Y-92303500D03*
%TO.N,/IO0*%
X214349000Y-94786900D03*
%TO.N,/EN*%
X216025000Y-82133100D03*
X217204000Y-96431700D03*
%TO.N,GND*%
X222482000Y-92801500D03*
%TO.N,/EXT_5V*%
X225018000Y-83101100D03*
X217870000Y-84686900D03*
%TD*%
%TO.N,Net-(U1-VBUS)*%
D28*
X220008000Y-88652600D02*
X220008000Y-93572900D01*
X220008000Y-88652600D02*
X220008000Y-93572900D01*
X219225000Y-87870000D02*
X220008000Y-88652600D01*
X219225000Y-87734000D02*
X219225000Y-87870000D01*
X218971000Y-87480300D02*
X219225000Y-87734000D01*
X217512000Y-87480300D02*
X218971000Y-87480300D01*
X216732000Y-88260000D02*
X217512000Y-87480300D01*
X215999000Y-88260000D02*
X216732000Y-88260000D01*
X215765000Y-88026100D02*
X215999000Y-88260000D01*
X219225000Y-87734000D02*
X219225000Y-87870000D01*
X218971000Y-87480300D02*
X219225000Y-87734000D01*
X217512000Y-87480300D02*
X218971000Y-87480300D01*
X216732000Y-88260000D02*
X217512000Y-87480300D01*
X215999000Y-88260000D02*
X216732000Y-88260000D01*
X215765000Y-88026100D02*
X215999000Y-88260000D01*
X215765000Y-87870000D02*
X215765000Y-88026100D01*
%TO.N,Net-(U1-~{RST})*%
X220010000Y-82505200D02*
X220010000Y-82600000D01*
X219726000Y-82221300D02*
X220010000Y-82505200D01*
X219287000Y-82221300D02*
X219726000Y-82221300D01*
X218686000Y-82821900D02*
X219287000Y-82221300D01*
X220010000Y-82505200D02*
X220010000Y-82600000D01*
X219726000Y-82221300D02*
X220010000Y-82505200D01*
X219287000Y-82221300D02*
X219726000Y-82221300D01*
X218686000Y-82821900D02*
X219287000Y-82221300D01*
X218686000Y-83287900D02*
X218686000Y-82821900D01*
%TO.N,Net-(U1-~{SUSPENDB})*%
X222545000Y-85414700D02*
X222545000Y-86214600D01*
X222545000Y-85414700D02*
X222545000Y-86214600D01*
X222500000Y-85370000D02*
X222545000Y-85414700D01*
%TO.N,/TXD*%
X225934000Y-82574200D02*
X225934000Y-84450700D01*
X225934000Y-82574200D02*
X225934000Y-84450700D01*
X225920000Y-82560000D02*
X225934000Y-82574200D01*
%TO.N,/RXD*%
X222980000Y-82590000D02*
X222870000Y-82590000D01*
X223247000Y-82856700D02*
X222980000Y-82590000D01*
X223247000Y-86275100D02*
X223247000Y-82856700D01*
X222755000Y-86767100D02*
X223247000Y-86275100D01*
X221857000Y-86767100D02*
X222755000Y-86767100D01*
X220976000Y-85886800D02*
X221857000Y-86767100D01*
X222980000Y-82590000D02*
X222870000Y-82590000D01*
X223247000Y-82856700D02*
X222980000Y-82590000D01*
X223247000Y-86275100D02*
X223247000Y-82856700D01*
X222755000Y-86767100D02*
X223247000Y-86275100D01*
X221857000Y-86767100D02*
X222755000Y-86767100D01*
X220976000Y-85886800D02*
X221857000Y-86767100D01*
X220047000Y-85886800D02*
X220976000Y-85886800D01*
%TO.N,Net-(Q2-Pad1)*%
X225890000Y-105501000D02*
X225890000Y-105620000D01*
X225056000Y-104667000D02*
X225890000Y-105501000D01*
X224593000Y-104667000D02*
X225056000Y-104667000D01*
X223593000Y-103667000D02*
X224593000Y-104667000D01*
X223593000Y-102526000D02*
X223593000Y-103667000D01*
X224248000Y-101872000D02*
X223593000Y-102526000D01*
X225890000Y-105501000D02*
X225890000Y-105620000D01*
X225056000Y-104667000D02*
X225890000Y-105501000D01*
X224593000Y-104667000D02*
X225056000Y-104667000D01*
X223593000Y-103667000D02*
X224593000Y-104667000D01*
X223593000Y-102526000D02*
X223593000Y-103667000D01*
X224248000Y-101872000D02*
X223593000Y-102526000D01*
X224248000Y-101270000D02*
X224248000Y-101872000D01*
X224247500Y-101270000D02*
X224248000Y-101270000D01*
%TO.N,/DTR*%
X226248000Y-103023000D02*
X226248000Y-102220000D01*
X211026000Y-106080000D02*
X211560000Y-105546000D01*
X210029000Y-106080000D02*
X211026000Y-106080000D01*
X209720000Y-105771000D02*
X210029000Y-106080000D01*
X211026000Y-106080000D02*
X211560000Y-105546000D01*
X210029000Y-106080000D02*
X211026000Y-106080000D01*
X209720000Y-105771000D02*
X210029000Y-106080000D01*
X209720000Y-105670000D02*
X209720000Y-105771000D01*
X226247500Y-102220000D02*
X226248000Y-102220000D01*
%TO.N,Net-(Q1-Pad1)*%
X210220000Y-103242000D02*
X210220000Y-105670000D01*
X208790000Y-101812000D02*
X210220000Y-103242000D01*
X210220000Y-103242000D02*
X210220000Y-105670000D01*
X208790000Y-101812000D02*
X210220000Y-103242000D01*
X208790000Y-101210000D02*
X208790000Y-101812000D01*
%TO.N,/RTS*%
X208790000Y-103110000D02*
X208790000Y-103922000D01*
X225390000Y-105620000D02*
X224938000Y-106072000D01*
%TO.N,/IO15*%
X222005000Y-77788300D02*
X222005000Y-76370000D01*
%TO.N,/RXD0*%
X226589000Y-63940000D02*
X226060000Y-63940000D01*
X229778000Y-67129000D02*
X226589000Y-63940000D01*
X229778000Y-68908300D02*
X229778000Y-67129000D01*
X226589000Y-63940000D02*
X226060000Y-63940000D01*
X229778000Y-67129000D02*
X226589000Y-63940000D01*
X229778000Y-68908300D02*
X229778000Y-67129000D01*
X230830000Y-69960000D02*
X229778000Y-68908300D01*
X225420000Y-81019500D02*
X225420000Y-82560000D01*
X225420000Y-81019500D02*
X225420000Y-82560000D01*
X225522000Y-80917900D02*
X225420000Y-81019500D01*
%TO.N,/IO2*%
X223275000Y-76370000D02*
X223275000Y-77781600D01*
%TO.N,/SD1*%
X220735000Y-77788300D02*
X220735000Y-76370000D01*
%TO.N,/IO17*%
X226060000Y-71560000D02*
X227262000Y-71560000D01*
X227865000Y-72163400D02*
X227262000Y-71560000D01*
X227865000Y-77988600D02*
X227865000Y-72163400D01*
X228714000Y-78837300D02*
X227865000Y-77988600D01*
X228714000Y-83083800D02*
X228714000Y-78837300D01*
X227262000Y-71560000D02*
X226060000Y-71560000D01*
X227865000Y-72163400D02*
X227262000Y-71560000D01*
X227865000Y-77988600D02*
X227865000Y-72163400D01*
X228714000Y-78837300D02*
X227865000Y-77988600D01*
X228714000Y-83083800D02*
X228714000Y-78837300D01*
X230830000Y-85200000D02*
X228714000Y-83083800D01*
%TO.N,/IO4*%
X226060000Y-74100000D02*
X227262000Y-74100000D01*
X227262000Y-78238500D02*
X227262000Y-74100000D01*
X228110000Y-79087100D02*
X227262000Y-78238500D01*
X228110000Y-86707100D02*
X228110000Y-79087100D01*
X230830000Y-89426800D02*
X228110000Y-86707100D01*
X227262000Y-74100000D02*
X226060000Y-74100000D01*
X227262000Y-78238500D02*
X227262000Y-74100000D01*
X228110000Y-79087100D02*
X227262000Y-78238500D01*
X228110000Y-86707100D02*
X228110000Y-79087100D01*
X230830000Y-89426800D02*
X228110000Y-86707100D01*
X230830000Y-90280000D02*
X230830000Y-89426800D01*
%TO.N,/SD0*%
X219465000Y-77772100D02*
X219465000Y-76370000D01*
%TO.N,/IO18*%
X226060000Y-69020000D02*
X227262000Y-69020000D01*
X228468000Y-70226800D02*
X227262000Y-69020000D01*
X228468000Y-77014000D02*
X228468000Y-70226800D01*
X230830000Y-79375500D02*
X228468000Y-77014000D01*
X227262000Y-69020000D02*
X226060000Y-69020000D01*
X228468000Y-70226800D02*
X227262000Y-69020000D01*
X228468000Y-77014000D02*
X228468000Y-70226800D01*
X230830000Y-79375500D02*
X228468000Y-77014000D01*
X230830000Y-80120000D02*
X230830000Y-79375500D01*
%TO.N,/IO21*%
X226060000Y-65210000D02*
X227262000Y-65210000D01*
X227262000Y-68059900D02*
X227262000Y-65210000D01*
X230830000Y-71628200D02*
X227262000Y-68059900D01*
X227262000Y-65210000D02*
X226060000Y-65210000D01*
X227262000Y-68059900D02*
X227262000Y-65210000D01*
X230830000Y-71628200D02*
X227262000Y-68059900D01*
X230830000Y-72500000D02*
X230830000Y-71628200D01*
%TO.N,/TXD0*%
X227262000Y-63851700D02*
X227262000Y-62670000D01*
X230830000Y-67420000D02*
X227262000Y-63851700D01*
X227262000Y-63851700D02*
X230830000Y-67420000D01*
X227262000Y-62670000D02*
X227262000Y-63851700D01*
X226060000Y-62670000D02*
X227262000Y-62670000D01*
X222370000Y-82794800D02*
X222718000Y-83142600D01*
X222370000Y-82794800D02*
X222718000Y-83142600D01*
X222370000Y-82590000D02*
X222370000Y-82794800D01*
%TO.N,/IO23*%
X228620000Y-60130000D02*
X226060000Y-60130000D01*
X228620000Y-60130000D02*
X226060000Y-60130000D01*
X230830000Y-62340000D02*
X228620000Y-60130000D01*
%TO.N,/IO5*%
X226060000Y-70290000D02*
X227262000Y-70290000D01*
X228167000Y-71195100D02*
X227262000Y-70290000D01*
X228167000Y-77138900D02*
X228167000Y-71195100D01*
X229036000Y-78007700D02*
X228167000Y-77138900D01*
X229036000Y-80865600D02*
X229036000Y-78007700D01*
X227262000Y-70290000D02*
X226060000Y-70290000D01*
X228167000Y-71195100D02*
X227262000Y-70290000D01*
X228167000Y-77138900D02*
X228167000Y-71195100D01*
X229036000Y-78007700D02*
X228167000Y-77138900D01*
X229036000Y-80865600D02*
X229036000Y-78007700D01*
X230830000Y-82660000D02*
X229036000Y-80865600D01*
%TO.N,/IO16*%
X226060000Y-72830000D02*
X227262000Y-72830000D01*
X227563000Y-73131700D02*
X227262000Y-72830000D01*
X227563000Y-78113600D02*
X227563000Y-73131700D01*
X228412000Y-78962200D02*
X227563000Y-78113600D01*
X228412000Y-85322000D02*
X228412000Y-78962200D01*
X227262000Y-72830000D02*
X226060000Y-72830000D01*
X227563000Y-73131700D02*
X227262000Y-72830000D01*
X227563000Y-78113600D02*
X227563000Y-73131700D01*
X228412000Y-78962200D02*
X227563000Y-78113600D01*
X228412000Y-85322000D02*
X228412000Y-78962200D01*
X230830000Y-87740000D02*
X228412000Y-85322000D01*
%TO.N,/IO19*%
X226525000Y-67750000D02*
X226060000Y-67750000D01*
X228770000Y-69994900D02*
X226525000Y-67750000D01*
X228770000Y-75520200D02*
X228770000Y-69994900D01*
X226525000Y-67750000D02*
X226060000Y-67750000D01*
X228770000Y-69994900D02*
X226525000Y-67750000D01*
X228770000Y-75520200D02*
X228770000Y-69994900D01*
X230830000Y-77580000D02*
X228770000Y-75520200D01*
%TO.N,/CLK*%
X218195000Y-77772200D02*
X218195000Y-76370000D01*
%TO.N,/IO22*%
X227350000Y-61400000D02*
X226060000Y-61400000D01*
X227350000Y-61400000D02*
X226060000Y-61400000D01*
X230830000Y-64880000D02*
X227350000Y-61400000D01*
%TO.N,/SD3*%
X215655000Y-76370000D02*
X215655000Y-77571700D01*
X214978000Y-77571700D02*
X214773000Y-77777500D01*
X214978000Y-77571700D02*
X214773000Y-77777500D01*
X215655000Y-77571700D02*
X214978000Y-77571700D01*
X215655000Y-76370000D02*
X215655000Y-77571700D01*
%TO.N,/IO13*%
X213115000Y-76370000D02*
X213115000Y-77571700D01*
X212939000Y-77571700D02*
X213115000Y-77571700D01*
X213115000Y-77571700D02*
X213115000Y-76370000D01*
X212939000Y-77571700D02*
X213115000Y-77571700D01*
X212729000Y-77781500D02*
X212939000Y-77571700D01*
%TO.N,/IO33*%
X209060000Y-69020000D02*
X207858000Y-69020000D01*
X206246000Y-75633900D02*
X204300000Y-77580000D01*
X206246000Y-74366600D02*
X206246000Y-75633900D01*
X206422000Y-74190400D02*
X206246000Y-74366600D01*
X206422000Y-70456000D02*
X206422000Y-74190400D01*
X206246000Y-75633900D02*
X204300000Y-77580000D01*
X206246000Y-74366600D02*
X206246000Y-75633900D01*
X206422000Y-74190400D02*
X206246000Y-74366600D01*
X206422000Y-70456000D02*
X206422000Y-74190400D01*
X207858000Y-69020000D02*
X206422000Y-70456000D01*
X209060000Y-69020000D02*
X207858000Y-69020000D01*
%TO.N,/SD2*%
X214385000Y-77356600D02*
X214385000Y-76370000D01*
X214385000Y-77356600D02*
X214385000Y-76370000D01*
X213959000Y-77782900D02*
X214385000Y-77356600D01*
%TO.N,/IO26*%
X209060000Y-71560000D02*
X207858000Y-71560000D01*
X206850000Y-80110500D02*
X204300000Y-82660000D01*
X206850000Y-74616400D02*
X206850000Y-80110500D01*
X207151000Y-74314700D02*
X206850000Y-74616400D01*
X207151000Y-72267100D02*
X207151000Y-74314700D01*
X206850000Y-80110500D02*
X204300000Y-82660000D01*
X206850000Y-74616400D02*
X206850000Y-80110500D01*
X207151000Y-74314700D02*
X206850000Y-74616400D01*
X207151000Y-72267100D02*
X207151000Y-74314700D01*
X207858000Y-71560000D02*
X207151000Y-72267100D01*
X209060000Y-71560000D02*
X207858000Y-71560000D01*
%TO.N,/IO14*%
X207453000Y-84587100D02*
X204300000Y-87740000D01*
X207453000Y-75188900D02*
X207453000Y-84587100D01*
X207858000Y-74783500D02*
X207453000Y-75188900D01*
X207858000Y-74100000D02*
X207858000Y-74783500D01*
X207453000Y-84587100D02*
X204300000Y-87740000D01*
X207453000Y-75188900D02*
X207453000Y-84587100D01*
X207858000Y-74783500D02*
X207453000Y-75188900D01*
X207858000Y-74100000D02*
X207858000Y-74783500D01*
X209060000Y-74100000D02*
X207858000Y-74100000D01*
%TO.N,/IO32*%
X206050000Y-73290000D02*
X204300000Y-75040000D01*
X206050000Y-69558300D02*
X206050000Y-73290000D01*
X207858000Y-67750000D02*
X206050000Y-69558300D01*
X206050000Y-73290000D02*
X204300000Y-75040000D01*
X206050000Y-69558300D02*
X206050000Y-73290000D01*
X207858000Y-67750000D02*
X206050000Y-69558300D01*
X209060000Y-67750000D02*
X207858000Y-67750000D01*
%TO.N,/IO34*%
X207858000Y-66401700D02*
X207858000Y-65210000D01*
X204300000Y-69960000D02*
X207858000Y-66401700D01*
X207858000Y-66401700D02*
X204300000Y-69960000D01*
X207858000Y-65210000D02*
X207858000Y-66401700D01*
X209060000Y-65210000D02*
X207858000Y-65210000D01*
%TO.N,/IO25*%
X209060000Y-70290000D02*
X207858000Y-70290000D01*
X206548000Y-77872200D02*
X204300000Y-80120000D01*
X206548000Y-74491500D02*
X206548000Y-77872200D01*
X206850000Y-74189800D02*
X206548000Y-74491500D01*
X206850000Y-71298800D02*
X206850000Y-74189800D01*
X206548000Y-77872200D02*
X204300000Y-80120000D01*
X206548000Y-74491500D02*
X206548000Y-77872200D01*
X206850000Y-74189800D02*
X206548000Y-74491500D01*
X206850000Y-71298800D02*
X206850000Y-74189800D01*
X207858000Y-70290000D02*
X206850000Y-71298800D01*
X209060000Y-70290000D02*
X207858000Y-70290000D01*
%TO.N,/IO27*%
X209060000Y-72830000D02*
X207858000Y-72830000D01*
X207151000Y-82348800D02*
X204300000Y-85200000D01*
X207151000Y-74834200D02*
X207151000Y-82348800D01*
X207453000Y-74532500D02*
X207151000Y-74834200D01*
X207453000Y-73235400D02*
X207453000Y-74532500D01*
X207151000Y-82348800D02*
X204300000Y-85200000D01*
X207151000Y-74834200D02*
X207151000Y-82348800D01*
X207453000Y-74532500D02*
X207151000Y-74834200D01*
X207453000Y-73235400D02*
X207453000Y-74532500D01*
X207858000Y-72830000D02*
X207453000Y-73235400D01*
X209060000Y-72830000D02*
X207858000Y-72830000D01*
%TO.N,/SENSOR_VN*%
X207780000Y-63940000D02*
X209060000Y-63940000D01*
X207780000Y-63940000D02*
X209060000Y-63940000D01*
X204300000Y-67420000D02*
X207780000Y-63940000D01*
%TO.N,/CMD*%
X216925000Y-76370000D02*
X216925000Y-77775000D01*
%TO.N,/SENSOR_VP*%
X206510000Y-62670000D02*
X209060000Y-62670000D01*
X206510000Y-62670000D02*
X209060000Y-62670000D01*
X204300000Y-64880000D02*
X206510000Y-62670000D01*
%TO.N,/IO35*%
X208536000Y-66480000D02*
X209060000Y-66480000D01*
X205352000Y-69664000D02*
X208536000Y-66480000D01*
X205352000Y-71448300D02*
X205352000Y-69664000D01*
X208536000Y-66480000D02*
X209060000Y-66480000D01*
X205352000Y-69664000D02*
X208536000Y-66480000D01*
X205352000Y-71448300D02*
X205352000Y-69664000D01*
X204300000Y-72500000D02*
X205352000Y-71448300D01*
%TO.N,/IO12*%
X207755000Y-86825400D02*
X204300000Y-90280000D01*
X207755000Y-75473700D02*
X207755000Y-86825400D01*
X207858000Y-75370000D02*
X207755000Y-75473700D01*
X207755000Y-86825400D02*
X204300000Y-90280000D01*
X207755000Y-75473700D02*
X207755000Y-86825400D01*
X207858000Y-75370000D02*
X207755000Y-75473700D01*
X209060000Y-75370000D02*
X207858000Y-75370000D01*
%TO.N,/USB_DP*%
X214662000Y-79137900D02*
X214090000Y-79710000D01*
X214662000Y-79137900D02*
X214090000Y-79710000D01*
X215277000Y-79137900D02*
X214662000Y-79137900D01*
X217580000Y-101215000D02*
X217580000Y-100113000D01*
X220816000Y-96877700D02*
X220816000Y-94195900D01*
X220816000Y-96877700D02*
X220816000Y-94195900D01*
X217580000Y-100113000D02*
X220816000Y-96877700D01*
%TO.N,/USB_DN*%
X222502000Y-81490600D02*
X222441000Y-81552400D01*
X222502000Y-81490600D02*
X222502000Y-79670000D01*
X222441000Y-81552400D02*
X222502000Y-81490600D01*
X218597000Y-99631300D02*
X221028000Y-99631300D01*
X218230000Y-99998100D02*
X218597000Y-99631300D01*
X218597000Y-99631300D02*
X221028000Y-99631300D01*
X218230000Y-99998100D02*
X218597000Y-99631300D01*
X218230000Y-101215000D02*
X218230000Y-99998100D01*
X222502500Y-79670000D02*
X222502000Y-79670000D01*
%TO.N,/VBUS*%
X216265000Y-87712500D02*
X216265000Y-87870000D01*
X216265000Y-87712500D02*
X216265000Y-87870000D01*
X216625000Y-87352900D02*
X216265000Y-87712500D01*
X210057000Y-79907400D02*
X209980000Y-79830000D01*
X210057000Y-79907400D02*
X209980000Y-79830000D01*
X210699000Y-79907400D02*
X210057000Y-79907400D01*
X218880000Y-101215000D02*
X218880000Y-100133000D01*
X221206000Y-87068800D02*
X220835000Y-86697100D01*
X222880000Y-87068800D02*
X221206000Y-87068800D01*
X224962000Y-84986200D02*
X222880000Y-87068800D01*
X226184000Y-84986200D02*
X224962000Y-84986200D01*
X227282000Y-83887900D02*
X226184000Y-84986200D01*
X221206000Y-87068800D02*
X220835000Y-86697100D01*
X222880000Y-87068800D02*
X221206000Y-87068800D01*
X224962000Y-84986200D02*
X222880000Y-87068800D01*
X226184000Y-84986200D02*
X224962000Y-84986200D01*
X227282000Y-83887900D02*
X226184000Y-84986200D01*
X227282000Y-79870000D02*
X227282000Y-83887900D01*
X227282500Y-79870000D02*
X227282000Y-79870000D01*
%TO.N,Net-(D1-A)*%
X218408000Y-85332500D02*
X218370000Y-85370000D01*
X218408000Y-83718600D02*
X218408000Y-85332500D01*
X218184000Y-83495600D02*
X218408000Y-83718600D01*
X218184000Y-79953000D02*
X218184000Y-83495600D01*
X218408000Y-85332500D02*
X218370000Y-85370000D01*
X218408000Y-83718600D02*
X218408000Y-85332500D01*
X218184000Y-83495600D02*
X218408000Y-83718600D01*
X218184000Y-79953000D02*
X218184000Y-83495600D01*
X218408000Y-79730000D02*
X218184000Y-79953000D01*
%TO.N,Net-(MOD1-3V3)*%
X208056000Y-81671300D02*
X209085000Y-82700000D01*
X208056000Y-79456400D02*
X208056000Y-81671300D01*
X210262000Y-77251000D02*
X208056000Y-79456400D01*
X210262000Y-60130000D02*
X210262000Y-77251000D01*
X208056000Y-81671300D02*
X209085000Y-82700000D01*
X208056000Y-79456400D02*
X208056000Y-81671300D01*
X210262000Y-77251000D02*
X208056000Y-79456400D01*
X210262000Y-60130000D02*
X210262000Y-77251000D01*
X209060000Y-60130000D02*
X210262000Y-60130000D01*
X209085000Y-85360000D02*
X209095000Y-85370000D01*
X209085000Y-85360000D02*
X209095000Y-85370000D01*
X209085000Y-82700000D02*
X209085000Y-85360000D01*
%TO.N,/VDD33*%
X213220000Y-81618100D02*
X213220000Y-82620000D01*
X213220000Y-81618100D02*
X213220000Y-82620000D01*
X213057000Y-81455100D02*
X213220000Y-81618100D01*
X213220000Y-84513400D02*
X213220000Y-82620000D01*
X213220000Y-84513400D02*
X213220000Y-82620000D01*
X213663000Y-84956200D02*
X213220000Y-84513400D01*
X213380000Y-85239000D02*
X213380000Y-85360000D01*
X213380000Y-85239000D02*
X213380000Y-85360000D01*
X213663000Y-84956200D02*
X213380000Y-85239000D01*
X214516000Y-84956200D02*
X213663000Y-84956200D01*
X215314000Y-85753700D02*
X214516000Y-84956200D01*
X214516000Y-84956200D02*
X213663000Y-84956200D01*
X215314000Y-85753700D02*
X214516000Y-84956200D01*
X219510000Y-85753700D02*
X215314000Y-85753700D01*
X219510000Y-82600000D02*
X219510000Y-85753700D01*
X221042000Y-92132700D02*
X220872000Y-92303500D01*
X221042000Y-92132700D02*
X220872000Y-92303500D01*
X221042000Y-87370500D02*
X221042000Y-92132700D01*
X220769000Y-87370500D02*
X221042000Y-87370500D01*
X219510000Y-86111200D02*
X220769000Y-87370500D01*
X220769000Y-87370500D02*
X221042000Y-87370500D01*
X219510000Y-86111200D02*
X220769000Y-87370500D01*
X219510000Y-85753700D02*
X219510000Y-86111200D01*
X223570000Y-87370500D02*
X225570000Y-85370000D01*
X223570000Y-87370500D02*
X225570000Y-85370000D01*
X221042000Y-87370500D02*
X223570000Y-87370500D01*
%TO.N,/IO0*%
X224248000Y-103170000D02*
X224248000Y-102568000D01*
X209185000Y-93568300D02*
X209185000Y-88920000D01*
X208055000Y-94698300D02*
X209185000Y-93568300D01*
X208055000Y-95550000D02*
X208055000Y-94698300D01*
X229340000Y-97475600D02*
X224248000Y-102568000D01*
X229340000Y-94309800D02*
X229340000Y-97475600D01*
X224248000Y-102568000D02*
X224248000Y-103170000D01*
X229340000Y-97475600D02*
X224248000Y-102568000D01*
X229340000Y-94309800D02*
X229340000Y-97475600D01*
X230830000Y-92820000D02*
X229340000Y-94309800D01*
X215028000Y-95466200D02*
X214349000Y-94786900D01*
X215028000Y-95550000D02*
X215028000Y-95466200D01*
X210404000Y-94786900D02*
X214349000Y-94786900D01*
X210404000Y-94786900D02*
X209185000Y-93568300D01*
X214349000Y-94786900D02*
X210404000Y-94786900D01*
X215028000Y-95466200D02*
X214349000Y-94786900D01*
X215028000Y-95550000D02*
X215028000Y-95466200D01*
X216005000Y-95550000D02*
X215028000Y-95550000D01*
X226060000Y-77902500D02*
X226060000Y-75370000D01*
X227785000Y-79627100D02*
X226060000Y-77902500D01*
X227785000Y-86808000D02*
X227785000Y-79627100D01*
X228945000Y-87968700D02*
X227785000Y-86808000D01*
X228945000Y-90935300D02*
X228945000Y-87968700D01*
X226060000Y-77902500D02*
X226060000Y-75370000D01*
X227785000Y-79627100D02*
X226060000Y-77902500D01*
X227785000Y-86808000D02*
X227785000Y-79627100D01*
X228945000Y-87968700D02*
X227785000Y-86808000D01*
X228945000Y-90935300D02*
X228945000Y-87968700D01*
X230830000Y-92820000D02*
X228945000Y-90935300D01*
%TO.N,/EN*%
X205240000Y-61400000D02*
X209060000Y-61400000D01*
X205240000Y-61400000D02*
X209060000Y-61400000D01*
X204300000Y-62340000D02*
X205240000Y-61400000D01*
X219015000Y-95580000D02*
X219015000Y-96431700D01*
X210790000Y-102160000D02*
X210790000Y-101558000D01*
X226965000Y-95580000D02*
X226965000Y-94728300D01*
X227942000Y-93751600D02*
X226965000Y-94728300D01*
X227942000Y-89161700D02*
X227942000Y-93751600D01*
X226965000Y-94728300D02*
X226965000Y-95580000D01*
X227942000Y-93751600D02*
X226965000Y-94728300D01*
X227942000Y-89161700D02*
X227942000Y-93751600D01*
X227520000Y-88740000D02*
X227942000Y-89161700D01*
X219015000Y-95580000D02*
X219015000Y-94728300D01*
X215917000Y-96431700D02*
X217204000Y-96431700D01*
X215917000Y-96431700D02*
X217204000Y-96431700D01*
X210790000Y-101558000D02*
X215917000Y-96431700D01*
X210790000Y-102160000D02*
X210790000Y-101558000D01*
X219015000Y-96431700D02*
X219015000Y-95580000D01*
X217204000Y-96431700D02*
X219015000Y-96431700D01*
X216025000Y-82134700D02*
X216025000Y-82133100D01*
X216025000Y-82134700D02*
X216025000Y-82133100D01*
X216470000Y-82580000D02*
X216025000Y-82134700D01*
X227304000Y-88354500D02*
X226070000Y-88354500D01*
X227520000Y-88570600D02*
X227304000Y-88354500D01*
X227304000Y-88354500D02*
X226070000Y-88354500D01*
X227520000Y-88570600D02*
X227304000Y-88354500D01*
X227520000Y-88740000D02*
X227520000Y-88570600D01*
X226070000Y-88354500D02*
X226070000Y-85370000D01*
X221418000Y-93006400D02*
X226070000Y-88354500D01*
X221418000Y-93213100D02*
X221418000Y-93006400D01*
X221124000Y-93507000D02*
X221418000Y-93213100D01*
X220795000Y-93507000D02*
X221124000Y-93507000D01*
X219574000Y-94728300D02*
X220795000Y-93507000D01*
X221418000Y-93006400D02*
X226070000Y-88354500D01*
X221418000Y-93213100D02*
X221418000Y-93006400D01*
X221124000Y-93507000D02*
X221418000Y-93213100D01*
X220795000Y-93507000D02*
X221124000Y-93507000D01*
X219574000Y-94728300D02*
X220795000Y-93507000D01*
X219015000Y-94728300D02*
X219574000Y-94728300D01*
X219015000Y-95580000D02*
X219015000Y-94728300D01*
%TO.N,GND*%
X221755000Y-103890000D02*
X221318000Y-103890000D01*
X216280000Y-102590000D02*
X216280000Y-101215000D01*
X216280000Y-102590000D02*
X216280000Y-101215000D01*
X217580000Y-103890000D02*
X216280000Y-102590000D01*
X216082000Y-101017000D02*
X216280000Y-101215000D01*
X216082000Y-100890000D02*
X216082000Y-101017000D01*
X216082000Y-101017000D02*
X216280000Y-101215000D01*
X216082000Y-100890000D02*
X216082000Y-101017000D01*
X215355000Y-100890000D02*
X216082000Y-100890000D01*
X213842000Y-103890000D02*
X213405000Y-103890000D01*
X208055000Y-91050000D02*
X208055000Y-91901700D01*
X207137000Y-92820000D02*
X204300000Y-92820000D01*
X207137000Y-92820000D02*
X204300000Y-92820000D01*
X208055000Y-91901700D02*
X207137000Y-92820000D01*
X208055000Y-91050000D02*
X208055000Y-91901700D01*
X221102000Y-84472500D02*
X222000000Y-85370000D01*
X221102000Y-79670000D02*
X221102000Y-84472500D01*
X208685000Y-89568300D02*
X208685000Y-88920000D01*
X208055000Y-90198300D02*
X208685000Y-89568300D01*
X208685000Y-89568300D02*
X208685000Y-88920000D01*
X208055000Y-90198300D02*
X208685000Y-89568300D01*
X208055000Y-91050000D02*
X208055000Y-90198300D01*
X216005000Y-91050000D02*
X216005000Y-90198300D01*
X219015000Y-91080000D02*
X219015000Y-90228300D01*
X227020000Y-90173300D02*
X227020000Y-88740000D01*
X226965000Y-90228300D02*
X227020000Y-90173300D01*
X227020000Y-90173300D02*
X227020000Y-88740000D01*
X226965000Y-90228300D02*
X227020000Y-90173300D01*
X226965000Y-91080000D02*
X226965000Y-90228300D01*
X216970000Y-79867500D02*
X216970000Y-82580000D01*
X216970000Y-79867500D02*
X216970000Y-82580000D01*
X216832000Y-79730000D02*
X216970000Y-79867500D01*
X210262000Y-59195000D02*
X214725000Y-63658300D01*
X210262000Y-58860000D02*
X210262000Y-59195000D01*
X209060000Y-58860000D02*
X210262000Y-58860000D01*
X210262000Y-58860000D02*
X209060000Y-58860000D01*
X210262000Y-59195000D02*
X210262000Y-58860000D01*
X214725000Y-63658300D02*
X210262000Y-59195000D01*
X214725000Y-64525000D02*
X214725000Y-63658300D01*
X228838000Y-58860000D02*
X229778000Y-59800000D01*
X226060000Y-58860000D02*
X228838000Y-58860000D01*
X228838000Y-58860000D02*
X226060000Y-58860000D01*
X229778000Y-59800000D02*
X228838000Y-58860000D01*
X230830000Y-59800000D02*
X229778000Y-59800000D01*
X214725000Y-64525000D02*
X214725000Y-65442500D01*
X216560000Y-64525000D02*
X216560000Y-65442500D01*
X218395000Y-64525000D02*
X218395000Y-65442500D01*
X214725000Y-66360000D02*
X214725000Y-67277500D01*
X216560000Y-66360000D02*
X216560000Y-67277500D01*
X218395000Y-66360000D02*
X218395000Y-67277500D01*
X214725000Y-68195000D02*
X214725000Y-67277500D01*
X216560000Y-68195000D02*
X216560000Y-67277500D01*
X218395000Y-68195000D02*
X218395000Y-67277500D01*
X216560000Y-65442500D02*
X216560000Y-66360000D01*
X218395000Y-65442500D02*
X218395000Y-66360000D01*
X211845000Y-71941700D02*
X211845000Y-76370000D01*
X214725000Y-69061700D02*
X211845000Y-71941700D01*
X211845000Y-71941700D02*
X211845000Y-76370000D01*
X214725000Y-69061700D02*
X211845000Y-71941700D01*
X214725000Y-68195000D02*
X214725000Y-69061700D01*
X226965000Y-91080000D02*
X226965000Y-91931700D01*
X221755000Y-103890000D02*
X221755000Y-102738000D01*
X218725000Y-90083300D02*
X218725000Y-87870000D01*
X218870000Y-90083300D02*
X218725000Y-90083300D01*
X218870000Y-90083300D02*
X218725000Y-90083300D01*
X219015000Y-90228300D02*
X218870000Y-90083300D01*
X219015000Y-91080000D02*
X219015000Y-90228300D01*
X216120000Y-90083300D02*
X216005000Y-90198300D01*
X216120000Y-90083300D02*
X216005000Y-90198300D01*
X218725000Y-90083300D02*
X216120000Y-90083300D01*
X217521000Y-79041400D02*
X216832000Y-79730000D01*
X220474000Y-79041400D02*
X217521000Y-79041400D01*
X217521000Y-79041400D02*
X216832000Y-79730000D01*
X220474000Y-79041400D02*
X217521000Y-79041400D01*
X221102000Y-79670000D02*
X220474000Y-79041400D01*
X221102000Y-84472500D02*
X221102000Y-79670000D01*
X222000000Y-85370000D02*
X221102000Y-84472500D01*
X209585000Y-85360000D02*
X209595000Y-85370000D01*
X209585000Y-85360000D02*
X209595000Y-85370000D01*
X209585000Y-82700000D02*
X209585000Y-85360000D01*
X209585000Y-80835000D02*
X208811000Y-80061000D01*
X209585000Y-80835000D02*
X208811000Y-80061000D01*
X209585000Y-82700000D02*
X209585000Y-80835000D01*
X208811000Y-80061000D02*
X208580000Y-79830000D01*
X210007000Y-78865000D02*
X211845000Y-78865000D01*
X210007000Y-78865000D02*
X211845000Y-78865000D01*
X208811000Y-80061000D02*
X210007000Y-78865000D01*
X213720000Y-80740000D02*
X213720000Y-82620000D01*
X211845000Y-78865000D02*
X213720000Y-80740000D01*
X215822000Y-80740000D02*
X216832000Y-79730000D01*
X215822000Y-80740000D02*
X216832000Y-79730000D01*
X213720000Y-80740000D02*
X215822000Y-80740000D01*
X213880000Y-88073300D02*
X213880000Y-85977200D01*
X213880000Y-88073300D02*
X213880000Y-85977200D01*
X216005000Y-90198300D02*
X213880000Y-88073300D01*
X213880000Y-85977200D02*
X213880000Y-85360000D01*
X211845000Y-76370000D02*
X211845000Y-78865000D01*
X209595000Y-85977200D02*
X209595000Y-85370000D01*
X208685000Y-86887200D02*
X209595000Y-85977200D01*
X208685000Y-86887200D02*
X209595000Y-85977200D01*
X208685000Y-88920000D02*
X208685000Y-86887200D01*
X209595000Y-85977200D02*
X213880000Y-85977200D01*
X225264000Y-93632300D02*
X223207000Y-93632300D01*
X225264000Y-93632300D02*
X223207000Y-93632300D01*
X226965000Y-91931700D02*
X225264000Y-93632300D01*
X226965000Y-91080000D02*
X226965000Y-91931700D01*
X221755000Y-95084200D02*
X223207000Y-93632300D01*
X221755000Y-95084200D02*
X223207000Y-93632300D01*
X221755000Y-103890000D02*
X221755000Y-95084200D01*
X222482000Y-92907200D02*
X222482000Y-92801500D01*
X222482000Y-92907200D02*
X222482000Y-92801500D01*
X223207000Y-93632300D02*
X222482000Y-92907200D01*
X221317500Y-103890000D02*
X221318000Y-103890000D01*
X213842500Y-103890000D02*
X213842000Y-103890000D01*
%TO.N,/EXT_5V*%
X225018000Y-80034500D02*
X225018000Y-83101100D01*
X225018000Y-80034500D02*
X225018000Y-83101100D01*
X225182000Y-79870000D02*
X225018000Y-80034500D01*
X217870000Y-85370000D02*
X217870000Y-84686900D01*
X225182500Y-79870000D02*
X225182000Y-79870000D01*
%TD*%
M02*
