%TF.GenerationSoftware,KiCad,Pcbnew,10.0.3*%
%TF.CreationDate,2026-06-28T19:21:50+05:30*%
%TF.ProjectId,ESP32-DevKit-Custom,45535033-322d-4446-9576-4b69742d4375,Version7*%
%TF.SameCoordinates,Original*%
%TF.FileFunction,Paste,Bot*%
%TF.FilePolarity,Positive*%
%FSLAX46Y46*%
G04 Gerber Fmt 4.6, Leading zero omitted, Abs format (unit mm)*
G04 Created by KiCad (PCBNEW 10.0.3) date 2026-06-28 19:21:50*
%MOMM*%
%LPD*%
G01*
G04 APERTURE LIST*
G04 Aperture macros list*
%AMRoundRect*
0 Rectangle with rounded corners*
0 $1 Rounding radius*
0 $2 $3 $4 $5 $6 $7 $8 $9 X,Y pos of 4 corners*
0 Add a 4 corners polygon primitive as box body*
4,1,4,$2,$3,$4,$5,$6,$7,$8,$9,$2,$3,0*
0 Add four circle primitives for the rounded corners*
1,1,$1+$1,$2,$3*
1,1,$1+$1,$4,$5*
1,1,$1+$1,$6,$7*
1,1,$1+$1,$8,$9*
0 Add four rect primitives between the rounded corners*
20,1,$1+$1,$2,$3,$4,$5,0*
20,1,$1+$1,$4,$5,$6,$7,0*
20,1,$1+$1,$6,$7,$8,$9,0*
20,1,$1+$1,$8,$9,$2,$3,0*%
G04 Aperture macros list end*
%ADD10C,0.010000*%
%ADD11RoundRect,0.067500X0.067500X0.067500X-0.067500X0.067500X-0.067500X-0.067500X0.067500X-0.067500X0*%
%ADD12RoundRect,0.067500X0.437500X0.067500X-0.437500X0.067500X-0.437500X-0.067500X0.437500X-0.067500X0*%
%ADD13RoundRect,0.067500X0.067500X0.437500X-0.067500X0.437500X-0.067500X-0.437500X0.067500X-0.437500X0*%
%ADD14RoundRect,0.375000X-0.625000X-0.375000X0.625000X-0.375000X0.625000X0.375000X-0.625000X0.375000X0*%
%ADD15RoundRect,0.500000X-0.500000X-1.400000X0.500000X-1.400000X0.500000X1.400000X-0.500000X1.400000X0*%
G04 APERTURE END LIST*
D10*
%TO.C,U1*%
X218840787Y-91320786D02*
X218840787Y-90168966D01*
X217691034Y-90168966D01*
X217691034Y-91320786D01*
X218840787Y-91320786D01*
G36*
X218840787Y-91320786D02*
G01*
X217691034Y-91320786D01*
X217691034Y-90168966D01*
X218840787Y-90168966D01*
X218840787Y-91320786D01*
G37*
X217690000Y-92831400D02*
X218841400Y-92831400D01*
X218841400Y-91680000D01*
X217690000Y-91680000D01*
X217690000Y-92831400D01*
G36*
X218841400Y-92831400D02*
G01*
X217690000Y-92831400D01*
X217690000Y-91680000D01*
X218841400Y-91680000D01*
X218841400Y-92831400D01*
G37*
X217329913Y-90170000D02*
X216180000Y-90170000D01*
X216180000Y-91319913D01*
X217329913Y-91319913D01*
X217329913Y-90170000D01*
G36*
X217329913Y-91319913D02*
G01*
X216180000Y-91319913D01*
X216180000Y-90170000D01*
X217329913Y-90170000D01*
X217329913Y-91319913D01*
G37*
X216178875Y-91681125D02*
X216178875Y-92830856D01*
X217330855Y-92830856D01*
X217330855Y-91681125D01*
X216178875Y-91681125D01*
G36*
X217330855Y-92830856D02*
G01*
X216178875Y-92830856D01*
X216178875Y-91681125D01*
X217330855Y-91681125D01*
X217330855Y-92830856D01*
G37*
%TD*%
D11*
%TO.C,C1*%
X224150000Y-84430000D03*
X223600000Y-84430000D03*
%TD*%
%TO.C,C2*%
X223525000Y-81480000D03*
X224075000Y-81480000D03*
%TD*%
D12*
%TO.C,U1*%
X219870000Y-90000000D03*
X219870000Y-90500000D03*
X219870000Y-91000000D03*
X219870000Y-91500000D03*
X219870000Y-92000000D03*
X219870000Y-92500000D03*
X219870000Y-93000000D03*
D13*
X219010000Y-93860000D03*
X218510000Y-93860000D03*
X218010000Y-93860000D03*
X217510000Y-93860000D03*
X217010000Y-93860000D03*
X216510000Y-93860000D03*
X216010000Y-93860000D03*
D12*
X215150000Y-93000000D03*
X215150000Y-92500000D03*
X215150000Y-92000000D03*
X215150000Y-91500000D03*
X215150000Y-91000000D03*
X215150000Y-90500000D03*
X215150000Y-90000000D03*
D13*
X216010000Y-89140000D03*
X216510000Y-89140000D03*
X217010000Y-89140000D03*
X217510000Y-89140000D03*
X218010000Y-89140000D03*
X218510000Y-89140000D03*
X219010000Y-89140000D03*
%TD*%
D14*
%TO.C,U2*%
X214340000Y-80490000D03*
D15*
X220640000Y-82790000D03*
D14*
X214340000Y-82790000D03*
X214340000Y-85090000D03*
%TD*%
M02*
