%TF.GenerationSoftware,KiCad,Pcbnew,10.0.3*%
%TF.CreationDate,2026-06-28T19:21:50+05:30*%
%TF.ProjectId,ESP32-DevKit-Custom,45535033-322d-4446-9576-4b69742d4375,Version7*%
%TF.SameCoordinates,Original*%
%TF.FileFunction,Copper,L3,Inr*%
%TF.FilePolarity,Positive*%
%FSLAX46Y46*%
G04 Gerber Fmt 4.6, Leading zero omitted, Abs format (unit mm)*
G04 Created by KiCad (PCBNEW 10.0.3) date 2026-06-28 19:21:50*
%MOMM*%
%LPD*%
G01*
G04 APERTURE LIST*
%TA.AperFunction,ComponentPad*%
%ADD10C,0.300000*%
%TD*%
%TA.AperFunction,ComponentPad*%
%ADD11C,1.700000*%
%TD*%
%TA.AperFunction,ComponentPad*%
%ADD12R,1.700000X1.700000*%
%TD*%
%TA.AperFunction,ComponentPad*%
%ADD13O,1.000000X1.900000*%
%TD*%
%TA.AperFunction,ComponentPad*%
%ADD14O,1.050000X1.250000*%
%TD*%
%TA.AperFunction,ViaPad*%
%ADD15C,0.600000*%
%TD*%
%TA.AperFunction,Conductor*%
%ADD16C,0.200000*%
%TD*%
G04 APERTURE END LIST*
D10*
%TO.N,GND*%
%TO.C,MOD1*%
X217477500Y-68195000D03*
X215642500Y-68195000D03*
X218395000Y-67277500D03*
X216560000Y-67277500D03*
X214725000Y-67277500D03*
X217477500Y-66360000D03*
X215642500Y-66360000D03*
X218395000Y-65442500D03*
X216560000Y-65442500D03*
X214725000Y-65442500D03*
X217477500Y-64525000D03*
X215642500Y-64525000D03*
%TD*%
D11*
%TO.N,/EXT_5V*%
%TO.C,J2*%
X204300000Y-105520000D03*
%TO.N,/CMD*%
X204300000Y-102980000D03*
%TO.N,/SD3*%
X204300000Y-100440000D03*
%TO.N,/SD2*%
X204300000Y-97900000D03*
%TO.N,/IO13*%
X204300000Y-95360000D03*
%TO.N,GND*%
X204300000Y-92820000D03*
%TO.N,/IO12*%
X204300000Y-90280000D03*
%TO.N,/IO14*%
X204300000Y-87740000D03*
%TO.N,/IO27*%
X204300000Y-85200000D03*
%TO.N,/IO26*%
X204300000Y-82660000D03*
%TO.N,/IO25*%
X204300000Y-80120000D03*
%TO.N,/IO33*%
X204300000Y-77580000D03*
%TO.N,/IO32*%
X204300000Y-75040000D03*
%TO.N,/IO35*%
X204300000Y-72500000D03*
%TO.N,/IO34*%
X204300000Y-69960000D03*
%TO.N,/SENSOR_VN*%
X204300000Y-67420000D03*
%TO.N,/SENSOR_VP*%
X204300000Y-64880000D03*
%TO.N,/EN*%
X204300000Y-62340000D03*
D12*
%TO.N,/VDD33*%
X204300000Y-59800000D03*
%TD*%
D11*
%TO.N,/CLK*%
%TO.C,J3*%
X230830000Y-105520000D03*
%TO.N,/SD0*%
X230830000Y-102980000D03*
%TO.N,/SD1*%
X230830000Y-100440000D03*
%TO.N,/IO15*%
X230830000Y-97900000D03*
%TO.N,/IO2*%
X230830000Y-95360000D03*
%TO.N,/IO0*%
X230830000Y-92820000D03*
%TO.N,/IO4*%
X230830000Y-90280000D03*
%TO.N,/IO16*%
X230830000Y-87740000D03*
%TO.N,/IO17*%
X230830000Y-85200000D03*
%TO.N,/IO5*%
X230830000Y-82660000D03*
%TO.N,/IO18*%
X230830000Y-80120000D03*
%TO.N,/IO19*%
X230830000Y-77580000D03*
%TO.N,GND*%
X230830000Y-75040000D03*
%TO.N,/IO21*%
X230830000Y-72500000D03*
%TO.N,/RXD0*%
X230830000Y-69960000D03*
%TO.N,/TXD0*%
X230830000Y-67420000D03*
%TO.N,/IO22*%
X230830000Y-64880000D03*
%TO.N,/IO23*%
X230830000Y-62340000D03*
D12*
%TO.N,GND*%
X230830000Y-59800000D03*
%TD*%
D13*
%TO.N,GND*%
%TO.C,J1*%
X213405000Y-103890000D03*
D14*
X215355000Y-100890000D03*
X219805000Y-100890000D03*
D13*
X221755000Y-103890000D03*
%TD*%
D15*
%TO.N,Net-(U1-VBUS)*%
X220008000Y-93572900D03*
%TO.N,Net-(U1-~{RST})*%
X219830000Y-87433400D03*
X218686000Y-83287900D03*
%TO.N,Net-(U1-~{SUSPENDB})*%
X222545000Y-86214600D03*
%TO.N,/TXD*%
X225934000Y-84450700D03*
%TO.N,/RXD*%
X220047000Y-85886800D03*
%TO.N,/DTR*%
X211560000Y-105546000D03*
X226248000Y-103023000D03*
X220536000Y-89140000D03*
%TO.N,/RTS*%
X208790000Y-103922000D03*
X224938000Y-106072000D03*
%TO.N,/IO15*%
X222005000Y-77788300D03*
%TO.N,/RXD0*%
X225522000Y-80917900D03*
%TO.N,/IO2*%
X223275000Y-77781600D03*
%TO.N,/SD1*%
X220735000Y-77788300D03*
%TO.N,/SD0*%
X219465000Y-77772100D03*
%TO.N,/TXD0*%
X222718000Y-83142600D03*
%TO.N,/CLK*%
X218195000Y-77772200D03*
%TO.N,/SD3*%
X214773000Y-77777500D03*
%TO.N,/IO13*%
X212729000Y-77781500D03*
%TO.N,/SD2*%
X213959000Y-77782900D03*
%TO.N,/CMD*%
X216925000Y-77775000D03*
%TO.N,/USB_DP*%
X217580000Y-100113000D03*
X215277000Y-79137900D03*
X220816000Y-94195900D03*
%TO.N,/USB_DN*%
X221028000Y-99631300D03*
X222441000Y-81552400D03*
X220916000Y-93005300D03*
%TO.N,/VBUS*%
X218880000Y-100133000D03*
X216625000Y-87352900D03*
X220835000Y-86697100D03*
X210699000Y-79907400D03*
%TO.N,/VDD33*%
X213057000Y-81455100D03*
X220872000Y-92303500D03*
%TO.N,/IO0*%
X214349000Y-94786900D03*
%TO.N,/EN*%
X216025000Y-82133100D03*
X217204000Y-96431700D03*
%TO.N,GND*%
X222482000Y-92801500D03*
%TO.N,/EXT_5V*%
X225018000Y-83101100D03*
X217870000Y-84686900D03*
%TD*%
%TO.N,Net-(U1-~{RST})*%
D16*
X218686000Y-86290000D02*
X218686000Y-83287900D01*
X218686000Y-86290000D02*
X218686000Y-83287900D01*
X219830000Y-87433400D02*
X218686000Y-86290000D01*
%TO.N,/DTR*%
X223680000Y-103023000D02*
X226248000Y-103023000D01*
X220314000Y-99657900D02*
X223680000Y-103023000D01*
X220314000Y-93988200D02*
X220314000Y-99657900D01*
X220536000Y-93765900D02*
X220314000Y-93988200D01*
X220536000Y-93334600D02*
X220536000Y-93765900D01*
X220370000Y-93168200D02*
X220536000Y-93334600D01*
X220370000Y-89306400D02*
X220370000Y-93168200D01*
X223680000Y-103023000D02*
X226248000Y-103023000D01*
X220314000Y-99657900D02*
X223680000Y-103023000D01*
X220314000Y-93988200D02*
X220314000Y-99657900D01*
X220536000Y-93765900D02*
X220314000Y-93988200D01*
X220536000Y-93334600D02*
X220536000Y-93765900D01*
X220370000Y-93168200D02*
X220536000Y-93334600D01*
X220370000Y-89306400D02*
X220370000Y-93168200D01*
X220536000Y-89140000D02*
X220370000Y-89306400D01*
%TO.N,/RXD0*%
X225522000Y-75268400D02*
X230830000Y-69960000D01*
X225522000Y-75268400D02*
X230830000Y-69960000D01*
X225522000Y-80917900D02*
X225522000Y-75268400D01*
%TO.N,/TXD0*%
X222760000Y-75490100D02*
X230830000Y-67420000D01*
X222760000Y-81162100D02*
X222760000Y-75490100D01*
X222942000Y-81344600D02*
X222760000Y-81162100D01*
X222942000Y-82918000D02*
X222942000Y-81344600D01*
X222760000Y-75490100D02*
X230830000Y-67420000D01*
X222760000Y-81162100D02*
X222760000Y-75490100D01*
X222942000Y-81344600D02*
X222760000Y-81162100D01*
X222942000Y-82918000D02*
X222942000Y-81344600D01*
X222718000Y-83142600D02*
X222942000Y-82918000D01*
%TO.N,/SD3*%
X214773000Y-89967400D02*
X204300000Y-100440000D01*
X214773000Y-89967400D02*
X204300000Y-100440000D01*
X214773000Y-77777500D02*
X214773000Y-89967400D01*
%TO.N,/IO13*%
X212555000Y-87104700D02*
X204300000Y-95360000D01*
X212555000Y-77955200D02*
X212555000Y-87104700D01*
X212555000Y-87104700D02*
X204300000Y-95360000D01*
X212555000Y-77955200D02*
X212555000Y-87104700D01*
X212729000Y-77781500D02*
X212555000Y-77955200D01*
%TO.N,/SD2*%
X213959000Y-88241300D02*
X213959000Y-77782900D01*
X213959000Y-88241300D02*
X213959000Y-77782900D01*
X204300000Y-97900000D02*
X213959000Y-88241300D01*
%TO.N,/USB_DP*%
X215277000Y-97810000D02*
X217580000Y-100113000D01*
X215277000Y-97810000D02*
X217580000Y-100113000D01*
X215277000Y-79137900D02*
X215277000Y-97810000D01*
%TO.N,/USB_DN*%
X221835000Y-92138400D02*
X221046000Y-92927700D01*
X221835000Y-82158300D02*
X221835000Y-92138400D01*
X221835000Y-92138400D02*
X221046000Y-92927700D01*
X221835000Y-82158300D02*
X221835000Y-92138400D01*
X222441000Y-81552400D02*
X221835000Y-82158300D01*
X221317000Y-93199600D02*
X221046000Y-92927700D01*
X221317000Y-99341800D02*
X221317000Y-93199600D01*
X221317000Y-93199600D02*
X221046000Y-92927700D01*
X221317000Y-99341800D02*
X221317000Y-93199600D01*
X221028000Y-99631300D02*
X221317000Y-99341800D01*
X220994000Y-92927700D02*
X221046000Y-92927700D01*
X220994000Y-92927700D02*
X221046000Y-92927700D01*
X220916000Y-93005300D02*
X220994000Y-92927700D01*
%TO.N,/VBUS*%
X216625000Y-78851900D02*
X216625000Y-87352900D01*
X215029000Y-77256400D02*
X216625000Y-78851900D01*
X212502000Y-77256400D02*
X215029000Y-77256400D01*
X210699000Y-79060100D02*
X212502000Y-77256400D01*
X216625000Y-78851900D02*
X216625000Y-87352900D01*
X215029000Y-77256400D02*
X216625000Y-78851900D01*
X212502000Y-77256400D02*
X215029000Y-77256400D01*
X210699000Y-79060100D02*
X212502000Y-77256400D01*
X210699000Y-79907400D02*
X210699000Y-79060100D01*
X217956000Y-88684500D02*
X218880000Y-88684500D01*
X217956000Y-88684500D02*
X218880000Y-88684500D01*
X216625000Y-87352900D02*
X217956000Y-88684500D01*
X218880000Y-88684500D02*
X218880000Y-100133000D01*
X220835000Y-87137800D02*
X220835000Y-86697100D01*
X219288000Y-88684500D02*
X220835000Y-87137800D01*
X220835000Y-87137800D02*
X220835000Y-86697100D01*
X219288000Y-88684500D02*
X220835000Y-87137800D01*
X218880000Y-88684500D02*
X219288000Y-88684500D01*
%TO.N,/EN*%
X216025000Y-95252100D02*
X216025000Y-82133100D01*
X216025000Y-95252100D02*
X216025000Y-82133100D01*
X217204000Y-96431700D02*
X216025000Y-95252100D01*
%TD*%
M02*
