%TF.GenerationSoftware,KiCad,Pcbnew,10.0.3*%
%TF.CreationDate,2026-06-28T19:21:50+05:30*%
%TF.ProjectId,ESP32-DevKit-Custom,45535033-322d-4446-9576-4b69742d4375,Version7*%
%TF.SameCoordinates,Original*%
%TF.FileFunction,Paste,Top*%
%TF.FilePolarity,Positive*%
%FSLAX46Y46*%
G04 Gerber Fmt 4.6, Leading zero omitted, Abs format (unit mm)*
G04 Created by KiCad (PCBNEW 10.0.3) date 2026-06-28 19:21:50*
%MOMM*%
%LPD*%
G01*
G04 APERTURE LIST*
G04 Aperture macros list*
%AMRoundRect*
0 Rectangle with rounded corners*
0 $1 Rounding radius*
0 $2 $3 $4 $5 $6 $7 $8 $9 X,Y pos of 4 corners*
0 Add a 4 corners polygon primitive as box body*
4,1,4,$2,$3,$4,$5,$6,$7,$8,$9,$2,$3,0*
0 Add four circle primitives for the rounded corners*
1,1,$1+$1,$2,$3*
1,1,$1+$1,$4,$5*
1,1,$1+$1,$6,$7*
1,1,$1+$1,$8,$9*
0 Add four rect primitives between the rounded corners*
20,1,$1+$1,$2,$3,$4,$5,0*
20,1,$1+$1,$4,$5,$6,$7,0*
20,1,$1+$1,$6,$7,$8,$9,0*
20,1,$1+$1,$8,$9,$2,$3,0*%
G04 Aperture macros list end*
%ADD10R,1.330000X1.330000*%
%ADD11R,2.000000X0.900000*%
%ADD12R,0.900000X2.000000*%
%ADD13RoundRect,0.067500X-0.067500X-0.067500X0.067500X-0.067500X0.067500X0.067500X-0.067500X0.067500X0*%
%ADD14RoundRect,0.218750X-0.218750X-0.256250X0.218750X-0.256250X0.218750X0.256250X-0.218750X0.256250X0*%
%ADD15R,1.550000X1.300000*%
%ADD16R,0.900000X0.800000*%
%ADD17RoundRect,0.150000X0.150000X0.200000X-0.150000X0.200000X-0.150000X-0.200000X0.150000X-0.200000X0*%
%ADD18RoundRect,0.112500X-0.187500X-0.112500X0.187500X-0.112500X0.187500X0.112500X-0.187500X0.112500X0*%
%ADD19R,0.300000X0.850000*%
%ADD20RoundRect,0.100000X-0.100000X-0.575000X0.100000X-0.575000X0.100000X0.575000X-0.100000X0.575000X0*%
%ADD21RoundRect,0.250000X-1.200000X-0.700000X1.200000X-0.700000X1.200000X0.700000X-1.200000X0.700000X0*%
G04 APERTURE END LIST*
D10*
%TO.C,MOD1*%
X218395000Y-68195000D03*
X216560000Y-68195000D03*
X214725000Y-68195000D03*
X218395000Y-66360000D03*
X216560000Y-66360000D03*
X214725000Y-66360000D03*
X218395000Y-64525000D03*
X216560000Y-64525000D03*
X214725000Y-64525000D03*
D11*
X226060000Y-58860000D03*
X226060000Y-60130000D03*
X226060000Y-61400000D03*
X226060000Y-62670000D03*
X226060000Y-63940000D03*
X226060000Y-65210000D03*
X226060000Y-66480000D03*
X226060000Y-67750000D03*
X226060000Y-69020000D03*
X226060000Y-70290000D03*
X226060000Y-71560000D03*
X226060000Y-72830000D03*
X226060000Y-74100000D03*
X226060000Y-75370000D03*
D12*
X223275000Y-76370000D03*
X222005000Y-76370000D03*
X220735000Y-76370000D03*
X219465000Y-76370000D03*
X218195000Y-76370000D03*
X216925000Y-76370000D03*
X215655000Y-76370000D03*
X214385000Y-76370000D03*
X213115000Y-76370000D03*
X211845000Y-76370000D03*
D11*
X209060000Y-75370000D03*
X209060000Y-74100000D03*
X209060000Y-72830000D03*
X209060000Y-71560000D03*
X209060000Y-70290000D03*
X209060000Y-69020000D03*
X209060000Y-67750000D03*
X209060000Y-66480000D03*
X209060000Y-65210000D03*
X209060000Y-63940000D03*
X209060000Y-62670000D03*
X209060000Y-61400000D03*
X209060000Y-60130000D03*
X209060000Y-58860000D03*
%TD*%
D13*
%TO.C,C9*%
X216995000Y-82580000D03*
X216445000Y-82580000D03*
%TD*%
%TO.C,C14*%
X226995000Y-88740000D03*
X227545000Y-88740000D03*
%TD*%
%TO.C,C15*%
X208660000Y-88920000D03*
X209210000Y-88920000D03*
%TD*%
%TO.C,C19*%
X213905000Y-85360000D03*
X213355000Y-85360000D03*
%TD*%
%TO.C,C20*%
X213745000Y-82620000D03*
X213195000Y-82620000D03*
%TD*%
%TO.C,C21*%
X209620000Y-85370000D03*
X209070000Y-85370000D03*
%TD*%
%TO.C,C22*%
X209610000Y-82700000D03*
X209060000Y-82700000D03*
%TD*%
%TO.C,R2*%
X218395000Y-85370000D03*
X217845000Y-85370000D03*
%TD*%
%TO.C,R11*%
X226095000Y-85370000D03*
X225545000Y-85370000D03*
%TD*%
%TO.C,R17*%
X222895000Y-82590000D03*
X222345000Y-82590000D03*
%TD*%
%TO.C,R18*%
X225945000Y-82560000D03*
X225395000Y-82560000D03*
%TD*%
%TO.C,R21*%
X210245000Y-105670000D03*
X209695000Y-105670000D03*
%TD*%
%TO.C,R22*%
X225365000Y-105620000D03*
X225915000Y-105620000D03*
%TD*%
%TO.C,R23*%
X222525000Y-85370000D03*
X221975000Y-85370000D03*
%TD*%
%TO.C,R24*%
X220035000Y-82600000D03*
X219485000Y-82600000D03*
%TD*%
%TO.C,R25*%
X216290000Y-87870000D03*
X215740000Y-87870000D03*
%TD*%
%TO.C,R26*%
X219250000Y-87870000D03*
X218700000Y-87870000D03*
%TD*%
D14*
%TO.C,D1*%
X218407500Y-79730000D03*
X216832500Y-79730000D03*
%TD*%
D15*
%TO.C,SW2*%
X226965000Y-95580000D03*
X219015000Y-95580000D03*
X226965000Y-91080000D03*
X219015000Y-91080000D03*
%TD*%
%TO.C,SW1*%
X216005000Y-95550000D03*
X208055000Y-95550000D03*
X216005000Y-91050000D03*
X208055000Y-91050000D03*
%TD*%
D16*
%TO.C,Q1*%
X208790000Y-101210000D03*
X208790000Y-103110000D03*
X210790000Y-102160000D03*
%TD*%
%TO.C,Q2*%
X224247500Y-101270000D03*
X224247500Y-103170000D03*
X226247500Y-102220000D03*
%TD*%
D17*
%TO.C,D6*%
X209980000Y-79830000D03*
X208580000Y-79830000D03*
%TD*%
%TO.C,D5*%
X214090000Y-79710000D03*
X212690000Y-79710000D03*
%TD*%
%TO.C,D4*%
X222502500Y-79670000D03*
X221102500Y-79670000D03*
%TD*%
D18*
%TO.C,D3*%
X227282500Y-79870000D03*
X225182500Y-79870000D03*
%TD*%
D19*
%TO.C,J1*%
X214080000Y-103890000D03*
X221080000Y-103890000D03*
D20*
X218880000Y-101215000D03*
X218230000Y-101215000D03*
X217580000Y-101215000D03*
X216930000Y-101215000D03*
X216280000Y-101215000D03*
D21*
X217580000Y-103890000D03*
%TD*%
M02*
