M48
; DRILL file KiCad 10.0.3 date 2026-06-28T19:27:37
; FORMAT={-:-/ absolute / metric / decimal}
; #@! TF.CreationDate,2026-06-28T19:27:37+05:30
; #@! TF.GenerationSoftware,Kicad,Pcbnew,10.0.3
; #@! TF.FileFunction,Plated,1,4,PTH
FMAT,2
METRIC
; #@! TA.AperFunction,Plated,PTH,ComponentDrill
T1C0.200
; #@! TA.AperFunction,Plated,PTH,ViaDrill
T2C0.300
; #@! TA.AperFunction,Plated,PTH,ComponentDrill
T3C0.600
; #@! TA.AperFunction,Plated,PTH,ComponentDrill
T4C0.650
; #@! TA.AperFunction,Plated,PTH,ComponentDrill
T5C1.000
%
G90
G05
T1
X214.725Y-65.442
X214.725Y-67.278
X215.642Y-64.525
X215.642Y-66.36
X215.642Y-68.195
X216.56Y-65.442
X216.56Y-67.278
X217.477Y-64.525
X217.477Y-66.36
X217.477Y-68.195
X218.395Y-65.442
X218.395Y-67.278
T2
X208.79Y-103.922
X210.699Y-79.907
X211.56Y-105.546
X212.729Y-77.781
X213.057Y-81.455
X213.959Y-77.783
X214.349Y-94.787
X214.773Y-77.778
X215.277Y-79.138
X216.025Y-82.133
X216.625Y-87.353
X216.925Y-77.775
X217.204Y-96.432
X217.58Y-100.113
X217.87Y-84.687
X218.195Y-77.772
X218.686Y-83.288
X218.88Y-100.133
X219.465Y-77.772
X219.83Y-87.433
X220.008Y-93.573
X220.047Y-85.887
X220.536Y-89.14
X220.735Y-77.788
X220.816Y-94.196
X220.835Y-86.697
X220.872Y-92.303
X220.916Y-93.005
X221.028Y-99.631
X222.005Y-77.788
X222.441Y-81.552
X222.482Y-92.801
X222.545Y-86.215
X222.718Y-83.143
X223.275Y-77.782
X224.938Y-106.072
X225.018Y-83.101
X225.522Y-80.918
X225.934Y-84.451
X226.248Y-103.023
T5
X204.3Y-59.8
X204.3Y-62.34
X204.3Y-64.88
X204.3Y-67.42
X204.3Y-69.96
X204.3Y-72.5
X204.3Y-75.04
X204.3Y-77.58
X204.3Y-80.12
X204.3Y-82.66
X204.3Y-85.2
X204.3Y-87.74
X204.3Y-90.28
X204.3Y-92.82
X204.3Y-95.36
X204.3Y-97.9
X204.3Y-100.44
X204.3Y-102.98
X204.3Y-105.52
X230.83Y-59.8
X230.83Y-62.34
X230.83Y-64.88
X230.83Y-67.42
X230.83Y-69.96
X230.83Y-72.5
X230.83Y-75.04
X230.83Y-77.58
X230.83Y-80.12
X230.83Y-82.66
X230.83Y-85.2
X230.83Y-87.74
X230.83Y-90.28
X230.83Y-92.82
X230.83Y-95.36
X230.83Y-97.9
X230.83Y-100.44
X230.83Y-102.98
X230.83Y-105.52
T3
G00X213.405Y-103.54
M15
G01X213.405Y-104.24
M16
G05
G00X221.755Y-103.54
M15
G01X221.755Y-104.24
M16
G05
T4
G00X215.355Y-100.79
M15
G01X215.355Y-100.99
M16
G05
G00X219.805Y-100.79
M15
G01X219.805Y-100.99
M16
G05
M30
